<svg width="32" height="32" viewBox="0 0 52 34" fill="none" xmlns="http://www.w3.org/2000/svg">
<path d="M27.1977 3.83705L33.7271 0.983376C35.1495 0.33518 36.6918 0 38.2519 0C39.8121 0 41.3544 0.33518 42.7768 0.983376L49.3062 3.83705C49.4927 3.91578 49.6517 4.04917 49.7626 4.22006C49.8735 4.39094 49.9313 4.59148 49.9285 4.79586V7.34278C49.9333 7.75094 49.8175 8.15129 49.5957 8.49237C49.374 8.83344 49.0564 9.0997 48.6839 9.25694L42.7768 11.8407C39.1108 13.4445 36.1884 12.9169 33.7271 11.8407L27.8199 9.25694C27.4479 9.09923 27.1309 8.83282 26.9095 8.49181C26.6881 8.1508 26.5723 7.75069 26.5771 7.34278V4.79586C26.5744 4.59173 26.6321 4.39143 26.7426 4.22061C26.8532 4.0498 27.0116 3.91624 27.1977 3.83705Z" fill="#FF6B35"/>
<path d="M26.5772 15.5272V13.0294C26.5772 12.8565 26.6197 12.6864 26.7009 12.5343C26.7821 12.3822 26.8993 12.2529 27.0422 12.158C27.185 12.0631 27.3489 12.0056 27.5192 11.9907C27.6894 11.9757 27.8607 12.0037 28.0175 12.0723L33.7271 14.5701C35.1495 15.2183 36.6918 15.5535 38.252 15.5535C39.8121 15.5535 41.3544 15.2183 42.7768 14.5701L48.4881 12.0723C48.645 12.0037 48.8162 11.9757 48.9865 11.9907C49.1567 12.0056 49.3207 12.0631 49.4635 12.158C49.6063 12.2529 49.7236 12.3822 49.8047 12.5343C49.8859 12.6864 49.9284 12.8565 49.9285 13.0294V15.5272C49.9335 15.9356 49.8177 16.3362 49.5959 16.6776C49.3742 17.0189 49.0566 17.2855 48.684 17.4431L42.7768 20.025C41.3544 20.6732 39.8121 21.0084 38.252 21.0084C36.6918 21.0084 35.1495 20.6732 33.7271 20.025L27.8199 17.4431C27.4476 17.2852 27.1304 17.0186 26.909 16.6772C26.6876 16.3359 26.572 15.9354 26.5772 15.5272Z" fill="#FF6B35"/>
<path d="M38.5632 29.2245L38.5667 29.2244L38.5632 29.2315V29.2245Z" fill="#FF6B35"/>
<path d="M38.5667 29.2244C38.8817 28.5847 39.0449 27.8795 39.0433 27.1649V24.6092C39.044 24.3196 39.009 24.0311 38.9393 23.7503C40.2636 23.657 41.562 23.3326 42.7769 22.7915L48.4882 20.2936C48.6451 20.2251 48.8163 20.197 48.9866 20.212C49.1568 20.227 49.3207 20.2845 49.4636 20.3794C49.6064 20.4743 49.7237 20.6036 49.8048 20.7557C49.886 20.9078 49.9285 21.0779 49.9286 21.2507V23.7485C49.9335 24.1567 49.8176 24.557 49.5958 24.8981C49.3741 25.2392 49.0566 25.5054 48.6841 25.6627L42.7769 28.2464C41.4479 28.8405 40.0189 29.1725 38.5667 29.2244Z" fill="#FF6B35"/>
<path d="M0.622418 11.9813L7.15185 9.12594V9.12068C8.57446 8.47336 10.1167 8.13863 11.6767 8.13863C13.2367 8.13863 14.7789 8.47336 16.2015 9.12068L22.731 11.9761C22.9169 12.055 23.0753 12.1882 23.1858 12.3587C23.2964 12.5292 23.3541 12.7293 23.3515 12.9332V15.4801C23.3569 15.8883 23.2414 16.2889 23.0199 16.6303C22.7985 16.9717 22.4811 17.2383 22.1087 17.396L16.2015 19.9779C12.5355 21.5818 9.61316 21.0542 7.15185 19.9779L1.24468 17.4012C0.872045 17.2437 0.554472 16.9771 0.33272 16.6357C0.110968 16.2943 -0.00484203 15.8938 0.000155163 15.4853V12.9384C-0.00228663 12.7343 0.0556519 12.5341 0.166532 12.3636C0.277411 12.1931 0.436169 12.0599 0.622418 11.9813Z" fill="#FF6B35"/>
<path d="M0.000148243 23.7475C-0.00473535 24.1557 0.111142 24.556 0.332901 24.8971C0.55466 25.2381 0.872176 25.5044 1.24467 25.6616L7.15184 28.2453C8.43963 28.8214 9.82197 29.1507 11.2286 29.2164C10.9131 28.5756 10.7499 27.8692 10.7519 27.1533V24.6064C10.7519 24.314 10.7869 24.0227 10.8559 23.7387C9.57761 23.6325 8.32574 23.3114 7.15184 22.7887L1.44054 20.2909C1.28366 20.2223 1.1124 20.1942 0.942143 20.2092C0.771889 20.2242 0.60798 20.2817 0.465154 20.3766C0.322328 20.4715 0.205062 20.6008 0.123895 20.7529C0.0427277 20.905 0.000204253 21.0751 0.000148243 21.2479V23.7475Z" fill="#FF6B35"/>
<path d="M13.8424 23.6584L20.3718 20.7942H20.3701C21.7925 20.146 23.3348 19.8108 24.895 19.8108C26.4551 19.8108 27.9974 20.146 29.4198 20.7942L35.951 23.6584C36.1373 23.7368 36.2962 23.8699 36.4071 24.0405C36.5181 24.2111 36.5759 24.4113 36.5732 24.6155V27.1624C36.5782 27.5708 36.4624 27.9714 36.2407 28.3128C36.0189 28.6542 35.7013 28.9207 35.3287 29.0782L29.4215 31.6602C25.7556 33.2641 22.8332 32.7365 20.3718 31.6602L14.4647 29.0782C14.0922 28.9205 13.7747 28.6539 13.553 28.3126C13.3313 27.9712 13.2154 27.5707 13.2202 27.1624V24.6155C13.2177 24.4114 13.2757 24.2112 13.3865 24.0407C13.4974 23.8701 13.6562 23.737 13.8424 23.6584Z" fill="#FF6B35"/>
</svg>
