<svg width="199" height="40" viewBox="0 0 199 40" fill="none" xmlns="http://www.w3.org/2000/svg">
<path d="M27.1977 3.83705L33.7271 0.983376C35.1495 0.33518 36.6918 0 38.2519 0C39.8121 0 41.3544 0.33518 42.7768 0.983376L49.3062 3.83705C49.4927 3.91578 49.6517 4.04917 49.7626 4.22006C49.8735 4.39094 49.9313 4.59148 49.9285 4.79586V7.34278C49.9333 7.75094 49.8175 8.15129 49.5957 8.49237C49.374 8.83344 49.0564 9.0997 48.6839 9.25694L42.7768 11.8407C39.1108 13.4445 36.1884 12.9169 33.7271 11.8407L27.8199 9.25694C27.4479 9.09923 27.1309 8.83282 26.9095 8.49181C26.6881 8.1508 26.5723 7.75069 26.5771 7.34278V4.79586C26.5744 4.59173 26.6321 4.39143 26.7426 4.22061C26.8532 4.0498 27.0116 3.91624 27.1977 3.83705Z" fill="#2B2B2B"/>
<path d="M26.5772 15.5272V13.0294C26.5772 12.8565 26.6197 12.6864 26.7009 12.5343C26.7821 12.3822 26.8993 12.2529 27.0422 12.158C27.185 12.0631 27.3489 12.0056 27.5192 11.9907C27.6894 11.9757 27.8607 12.0037 28.0175 12.0723L33.7271 14.5701C35.1495 15.2183 36.6918 15.5535 38.252 15.5535C39.8121 15.5535 41.3544 15.2183 42.7768 14.5701L48.4881 12.0723C48.645 12.0037 48.8162 11.9757 48.9865 11.9907C49.1567 12.0056 49.3207 12.0631 49.4635 12.158C49.6063 12.2529 49.7236 12.3822 49.8047 12.5343C49.8859 12.6864 49.9284 12.8565 49.9285 13.0294V15.5272C49.9335 15.9356 49.8177 16.3362 49.5959 16.6776C49.3742 17.0189 49.0566 17.2855 48.684 17.4431L42.7768 20.025C41.3544 20.6732 39.8121 21.0084 38.252 21.0084C36.6918 21.0084 35.1495 20.6732 33.7271 20.025L27.8199 17.4431C27.4476 17.2852 27.1304 17.0186 26.909 16.6772C26.6876 16.3359 26.572 15.9354 26.5772 15.5272Z" fill="#2B2B2B"/>
<path d="M38.5632 29.2245L38.5667 29.2244L38.5632 29.2315V29.2245Z" fill="#2B2B2B"/>
<path d="M38.5667 29.2244C38.8817 28.5847 39.0449 27.8795 39.0433 27.1649V24.6092C39.044 24.3196 39.009 24.0311 38.9393 23.7503C40.2636 23.657 41.562 23.3326 42.7769 22.7915L48.4882 20.2936C48.6451 20.2251 48.8163 20.197 48.9866 20.212C49.1568 20.227 49.3207 20.2845 49.4636 20.3794C49.6064 20.4743 49.7237 20.6036 49.8048 20.7557C49.886 20.9078 49.9285 21.0779 49.9286 21.2507V23.7485C49.9335 24.1567 49.8176 24.557 49.5958 24.8981C49.3741 25.2392 49.0566 25.5054 48.6841 25.6627L42.7769 28.2464C41.4479 28.8405 40.0189 29.1725 38.5667 29.2244Z" fill="#2B2B2B"/>
<path d="M0.622418 11.9813L7.15185 9.12594V9.12068C8.57446 8.47336 10.1167 8.13863 11.6767 8.13863C13.2367 8.13863 14.7789 8.47336 16.2015 9.12068L22.731 11.9761C22.9169 12.055 23.0753 12.1882 23.1858 12.3587C23.2964 12.5292 23.3541 12.7293 23.3515 12.9332V15.4801C23.3569 15.8883 23.2414 16.2889 23.0199 16.6303C22.7985 16.9717 22.4811 17.2383 22.1087 17.396L16.2015 19.9779C12.5355 21.5818 9.61316 21.0542 7.15185 19.9779L1.24468 17.4012C0.872045 17.2437 0.554472 16.9771 0.33272 16.6357C0.110968 16.2943 -0.00484203 15.8938 0.000155163 15.4853V12.9384C-0.00228663 12.7343 0.0556519 12.5341 0.166532 12.3636C0.277411 12.1931 0.436169 12.0599 0.622418 11.9813Z" fill="#2B2B2B"/>
<path d="M0.000148243 23.7475C-0.00473535 24.1557 0.111142 24.556 0.332901 24.8971C0.55466 25.2381 0.872176 25.5044 1.24467 25.6616L7.15184 28.2453C8.43963 28.8214 9.82197 29.1507 11.2286 29.2164C10.9131 28.5756 10.7499 27.8692 10.7519 27.1533V24.6064C10.7519 24.314 10.7869 24.0227 10.8559 23.7387C9.57761 23.6325 8.32574 23.3114 7.15184 22.7887L1.44054 20.2909C1.28366 20.2223 1.1124 20.1942 0.942143 20.2092C0.771889 20.2242 0.60798 20.2817 0.465154 20.3766C0.322328 20.4715 0.205062 20.6008 0.123895 20.7529C0.0427277 20.905 0.000204253 21.0751 0.000148243 21.2479V23.7475Z" fill="#2B2B2B"/>
<path d="M13.8424 23.6584L20.3718 20.7942H20.3701C21.7925 20.146 23.3348 19.8108 24.895 19.8108C26.4551 19.8108 27.9974 20.146 29.4198 20.7942L35.951 23.6584C36.1373 23.7368 36.2962 23.8699 36.4071 24.0405C36.5181 24.2111 36.5759 24.4113 36.5732 24.6155V27.1624C36.5782 27.5708 36.4624 27.9714 36.2407 28.3128C36.0189 28.6542 35.7013 28.9207 35.3287 29.0782L29.4215 31.6602C25.7556 33.2641 22.8332 32.7365 20.3718 31.6602L14.4647 29.0782C14.0922 28.9205 13.7747 28.6539 13.553 28.3126C13.3313 27.9712 13.2154 27.5707 13.2202 27.1624V24.6155C13.2177 24.4114 13.2757 24.2112 13.3865 24.0407C13.4974 23.8701 13.6562 23.737 13.8424 23.6584Z" fill="#2B2B2B"/>
<path d="M64.4496 9.3974C65.416 9.3974 66.2434 9.5364 66.9317 9.8144C67.6334 10.0924 68.1695 10.4895 68.5402 11.0058C68.9241 11.5221 69.116 12.1443 69.116 12.8724C69.116 13.6534 68.8976 14.3219 68.4607 14.8779C68.0239 15.4339 67.4282 15.798 66.6736 15.9701C67.6003 16.1289 68.3284 16.5195 68.8579 17.1416C69.3874 17.7638 69.6522 18.5449 69.6522 19.4848C69.6522 20.279 69.447 20.9608 69.0366 21.53C68.6262 22.0993 68.0437 22.5361 67.2892 22.8406C66.5346 23.1451 65.6344 23.2973 64.5886 23.2973H58.4131V9.3974H64.4496ZM64.3305 15.1758C65.0718 15.1758 65.6543 15.0103 66.0779 14.6794C66.5015 14.3352 66.7133 13.8586 66.7133 13.2497C66.7133 12.654 66.5015 12.1972 66.0779 11.8795C65.6543 11.5486 65.0718 11.3897 64.3305 11.403H60.7562V15.1758H64.3305ZM64.3305 21.2918C65.2439 21.305 65.9588 21.1329 66.475 20.7755C66.9913 20.4048 67.2495 19.8819 67.2495 19.2068C67.2495 18.5713 66.9913 18.0749 66.475 17.7175C65.9588 17.3468 65.2439 17.1681 64.3305 17.1814H60.7562V21.2918H64.3305Z" fill="#2B2B2B"/>
<path d="M73.6246 9.3974H75.9678V23.2973H73.6246V9.3974Z" fill="#2B2B2B"/>
<path d="M79.1599 9.3974H90.2997V11.403H85.8915V23.2973H83.5483V11.403H79.1599V9.3974Z" fill="#2B2B2B"/>
<path d="M102.732 13.0114C102.229 12.4554 101.634 12.0185 100.945 11.7008C100.257 11.3831 99.5619 11.2242 98.8603 11.2242C98.1719 11.2242 97.5232 11.3566 96.9143 11.6214C96.3186 11.8729 95.789 12.2303 95.3257 12.6937C94.8756 13.157 94.5248 13.6998 94.2733 14.3219C94.0218 14.9309 93.896 15.5928 93.896 16.3076C93.896 17.0093 94.0218 17.6712 94.2733 18.2933C94.5248 18.9023 94.8756 19.4384 95.3257 19.9018C95.789 20.3651 96.3186 20.7291 96.9143 20.9939C97.5232 21.2587 98.1719 21.391 98.8603 21.391C99.5619 21.391 100.25 21.2454 100.925 20.9542C101.601 20.6497 102.203 20.2393 102.732 19.723L104.122 21.1726C103.659 21.6359 103.13 22.0397 102.534 22.3839C101.951 22.7281 101.336 22.9928 100.687 23.1782C100.052 23.3635 99.403 23.4562 98.7411 23.4562C97.7218 23.4562 96.7753 23.2775 95.9016 22.92C95.0279 22.5494 94.2601 22.0397 93.5982 21.391C92.9495 20.7424 92.4398 19.9878 92.0692 19.1273C91.6985 18.2536 91.5132 17.3203 91.5132 16.3275C91.5132 15.3346 91.6985 14.4146 92.0692 13.5674C92.4398 12.7069 92.9561 11.9523 93.618 11.3037C94.2932 10.655 95.0676 10.152 95.9413 9.79454C96.8282 9.43712 97.788 9.2584 98.8206 9.2584C99.4825 9.2584 100.131 9.34445 100.767 9.51655C101.402 9.68864 102.004 9.93354 102.574 10.2513C103.143 10.569 103.652 10.9529 104.103 11.403L102.732 13.0114Z" fill="#2B2B2B"/>
<path d="M107.702 9.3974H117.63V11.403H110.045V15.3148H116.836V17.3005H110.045V21.2918H117.869V23.2973H107.702V9.3974Z" fill="#2B2B2B"/>
<path d="M121.924 9.3974H124.228L132.27 20.418L131.674 20.6166V9.3974H133.978V23.2973H131.674L123.652 12.2965L124.268 12.098V23.2973H121.924V9.3974Z" fill="#2B2B2B"/>
<path d="M147.302 12.6142C146.799 12.2965 146.302 12.045 145.812 11.8597C145.323 11.6743 144.859 11.542 144.422 11.4625C143.985 11.3831 143.588 11.3434 143.231 11.3434C142.543 11.3434 141.993 11.4758 141.583 11.7405C141.172 12.0053 140.967 12.3892 140.967 12.8922C140.967 13.3423 141.1 13.713 141.364 14.0042C141.642 14.2822 142 14.5139 142.437 14.6992C142.887 14.8713 143.377 15.0368 143.906 15.1956C144.449 15.3545 144.985 15.5332 145.514 15.7318C146.044 15.9171 146.534 16.162 146.984 16.4665C147.434 16.771 147.791 17.1615 148.056 17.6381C148.321 18.1014 148.453 18.6905 148.453 19.4053C148.453 20.2261 148.228 20.9409 147.778 21.5499C147.328 22.1456 146.706 22.6089 145.912 22.9399C145.131 23.2708 144.23 23.4363 143.211 23.4363C142.483 23.4363 141.775 23.3436 141.086 23.1583C140.398 22.9597 139.749 22.695 139.14 22.364C138.545 22.0331 138.009 21.6492 137.532 21.2123L138.545 19.2862C139.021 19.723 139.524 20.0937 140.054 20.3982C140.597 20.7027 141.139 20.9343 141.682 21.0932C142.238 21.252 142.761 21.3315 143.251 21.3315C144.072 21.3315 144.707 21.1726 145.157 20.8549C145.62 20.5372 145.852 20.0937 145.852 19.5245C145.852 19.0611 145.713 18.6905 145.435 18.4125C145.17 18.1212 144.813 17.883 144.363 17.6976C143.926 17.5123 143.436 17.3468 142.893 17.2012C142.364 17.0556 141.828 16.8901 141.285 16.7048C140.755 16.5062 140.266 16.2613 139.816 15.9701C139.379 15.6788 139.021 15.3016 138.743 14.8382C138.478 14.3749 138.346 13.7858 138.346 13.0709C138.346 12.2899 138.558 11.6148 138.982 11.0455C139.405 10.4631 139.994 10.013 140.749 9.69526C141.517 9.37754 142.404 9.21869 143.41 9.21869C144.31 9.21869 145.184 9.35107 146.031 9.61583C146.878 9.88059 147.626 10.2248 148.275 10.6484L147.302 12.6142Z" fill="#2B2B2B"/>
<path d="M152.386 9.3974H162.315V11.403H154.73V15.3148H161.521V17.3005H154.73V21.2918H162.553V23.2973H152.386V9.3974Z" fill="#2B2B2B"/>
</svg>
